PathFileType	4	(X/Y/Z)	 s06c0403.trc
DataRate	CameraRate	NumFrames	NumMarkers	Units	OrigDataRate	OrigDataStartFrame	OrigNumFrames
200	200	4	48	mm	200	1251	2000
Frame#	Time	racr			lacr			c7			jug			rlel			rdr			llel			ldr			s2			lic			ric			lasi			rasi			rpsi			lpsi			rgt			lgt			rth1			rth2			rth3			rth4			rlfc			rmfc			rsh1			rsh2			rsh3			rsh4			rlmal			rcal			rtoe			rmt5			lth1			lth2			lth4			lth3			llfc			lmfc			llmal			lcal			lmt5			lsh1			lsh2			lsh3			lsh4			ltoe			SBIKE			LBIKE			RBIKE			
		X1	Y1	Z1	X2	Y2	Z2	X3	Y3	Z3	X4	Y4	Z4	X5	Y5	Z5	X6	Y6	Z6	X7	Y7	Z7	X8	Y8	Z8	X9	Y9	Z9	X10	Y10	Z10	X11	Y11	Z11	X12	Y12	Z12	X13	Y13	Z13	X14	Y14	Z14	X15	Y15	Z15	X16	Y16	Z16	X17	Y17	Z17	X18	Y18	Z18	X19	Y19	Z19	X20	Y20	Z20	X21	Y21	Z21	X22	Y22	Z22	X23	Y23	Z23	X24	Y24	Z24	X25	Y25	Z25	X26	Y26	Z26	X27	Y27	Z27	X28	Y28	Z28	X29	Y29	Z29	X30	Y30	Z30	X31	Y31	Z31	X32	Y32	Z32	X33	Y33	Z33	X34	Y34	Z34	X35	Y35	Z35	X36	Y36	Z36	X37	Y37	Z37	X38	Y38	Z38	X39	Y39	Z39	X40	Y40	Z40	X41	Y41	Z41	X42	Y42	Z42	X43	Y43	Z43	X44	Y44	Z44	X45	Y45	Z45	X46	Y46	Z46	X47	Y47	Z47	X48	Y48	Z48	
1251	6.2550	793.041918	1207.448593	-62.930190	815.570610	1203.863879	-397.821999	835.371468	1295.564417	-231.652031	770.987625	1138.395976	-230.156749	568.098032	1107.373794	77.448181	685.983803	952.382003	-25.839808	575.469247	1110.809176	-511.646660	688.752647	945.105712	-427.111406	252.778399	1198.525760	-227.180089	403.004771	1137.860972	-392.587365	383.687197	1113.865349	-57.246456	404.756147	1078.074652	-358.843221	401.600421	1066.067045	-95.085860	293.066770	1221.147088	-190.531820	292.676838	1227.987539	-248.682092	314.675611	1040.213098	-41.434961	370.005063	1094.791193	-418.026809	331.538632	909.831064	-13.903520	354.268760	821.798700	-15.957779	331.806852	738.364867	-26.473042	390.381102	823.187076	-27.918990	327.070505	633.208241	-38.036550	321.606302	608.431156	-145.591331	291.182667	514.971471	-15.237364	289.476339	428.965329	-32.983125	246.730445	353.737861	-39.840695	314.229219	426.921433	-65.660741	219.868899	278.592184	-48.227616	156.194469	280.196235	-96.879202	390.764526	131.417187	-94.967495	295.339689	161.157469	-25.710810	421.532099	989.041141	-438.632524	491.187524	936.774792	-432.094935	517.956101	957.683033	-416.078525	526.017696	854.325706	-431.607372	541.846025	747.616050	-401.991905	539.814056	734.067653	-285.458997	201.999966	605.123056	-377.851191	143.596061	652.285695	-329.682292	191.932825	459.073216	-395.559293	452.411448	691.714380	-418.130900	382.891848	645.675734	-393.183062	295.052882	633.522873	-391.102984	396.251345	626.406451	-361.536237	234.650554	384.880404	-334.609979	-204.403120	866.928844	-201.783041	-52.134855	84.090137	-410.393297	-50.912195	79.939720	-12.939858	
1252	6.2600	793.684024	1209.739002	-65.351783	814.231275	1204.478606	-400.298341	834.583580	1296.158457	-233.806994	770.266340	1138.978546	-230.836448	568.433112	1107.622855	76.022754	687.124486	952.235801	-26.507389	574.510208	1109.978104	-513.140063	688.588967	945.238995	-427.301983	251.962879	1196.800735	-223.541541	401.062126	1139.377324	-392.387057	386.430874	1111.589435	-57.198293	403.470370	1079.216339	-359.586949	403.911698	1064.251566	-95.812885	292.637082	1219.331040	-187.585417	291.544073	1226.901600	-245.634078	316.177196	1036.215605	-41.006828	367.954592	1096.470472	-418.224657	329.428028	907.603558	-14.078365	349.491876	819.024668	-16.247402	324.984930	736.293030	-27.186765	385.926102	819.520022	-28.794894	318.404840	631.372963	-38.707283	312.424036	606.960166	-146.668144	283.088366	513.282286	-15.314597	281.900864	427.086839	-33.130591	239.583242	351.591832	-39.904201	306.948069	424.872990	-65.879264	213.273636	276.423502	-48.149944	150.326340	279.603948	-97.001329	381.039987	124.638683	-94.760595	286.365913	156.863141	-25.612849	420.502274	991.018072	-440.261002	491.877614	940.682377	-433.233842	518.004388	962.402298	-417.153037	528.861226	859.412185	-432.853150	548.827014	753.662732	-401.416195	547.172789	740.729868	-284.289180	209.542583	609.813769	-377.720218	149.938566	656.012507	-329.788174	201.860686	463.760870	-395.538381	460.111108	697.651254	-417.399275	390.857867	651.445026	-392.693943	302.812015	639.057199	-390.820623	403.884004	631.941249	-361.139735	246.480556	391.487037	-336.154637	-204.486077	866.919150	-201.690449	-52.126829	84.109571	-410.369882	-50.948214	79.990144	-12.947204	
1253	6.2650	793.520044	1212.496143	-66.798634	812.925885	1205.069471	-402.819656	833.767494	1296.639451	-235.865344	768.786936	1139.779433	-230.850923	569.048503	1107.754748	74.636610	688.593220	952.040036	-27.034094	573.687048	1109.123448	-514.788989	688.429983	945.795799	-427.620388	251.273028	1195.479372	-220.056317	398.920572	1141.330634	-392.329631	388.900242	1109.510651	-56.952788	402.731097	1080.988108	-360.233766	405.692120	1062.894757	-96.735813	289.645982	1219.427547	-184.373167	290.488773	1225.611833	-242.941634	317.813539	1032.569599	-40.422149	365.765121	1097.786942	-418.458210	328.094231	905.955047	-14.796850	346.383292	817.086405	-17.251381	318.560343	735.031015	-27.733185	381.670290	816.640524	-29.844726	309.962421	630.246504	-39.346446	302.153995	606.565689	-147.799186	275.139528	512.113194	-15.603398	274.440259	425.975238	-33.340796	232.637937	350.142413	-39.985995	298.698652	423.525239	-66.096000	207.149992	274.940874	-48.271736	144.899284	279.813972	-97.102680	371.102054	118.104115	-94.588496	277.196390	153.150797	-25.578592	419.139161	992.584815	-442.509383	491.967521	944.502523	-433.843633	517.133876	966.842665	-417.229109	531.475644	864.469496	-433.547631	555.345405	760.096797	-401.003331	554.260899	747.050549	-283.431123	216.996251	613.832857	-377.415383	156.280407	658.852364	-329.832787	212.034129	467.774701	-395.612257	467.540867	703.588600	-416.574973	398.494513	656.857410	-392.242209	310.468487	644.074822	-390.537927	411.568049	637.219143	-360.865193	257.313556	395.533141	-334.853783	-204.559125	866.881037	-201.636321	-52.150447	84.054550	-410.320961	-50.905540	79.878070	-12.924873	
1254	6.2700	793.448837	1214.732932	-68.172018	811.689287	1205.476014	-405.220835	833.020646	1297.094876	-237.739580	767.589038	1140.479439	-231.059459	569.871235	1107.799630	73.291249	690.345935	951.673865	-27.456611	573.029753	1108.309806	-516.573931	688.231521	946.091470	-427.325604	250.604207	1194.509844	-216.476922	396.997068	1143.461784	-392.397485	391.448492	1107.003421	-57.316768	402.247909	1083.062703	-360.850680	407.402015	1060.567636	-97.653586	291.375430	1217.283885	-181.517421	289.863674	1224.922242	-240.558232	319.644749	1029.492793	-39.913527	363.623675	1099.057969	-418.702039	326.692027	905.200469	-15.496711	342.430977	815.660942	-17.698718	312.299091	734.525089	-28.653101	377.527324	814.696711	-30.300669	301.949877	629.648798	-39.920123	293.604398	605.900597	-148.946355	267.354158	511.626744	-15.947368	267.241518	425.391650	-33.451039	225.828580	349.419701	-39.994571	291.720004	423.189379	-66.021489	201.433105	274.106826	-48.365938	139.907063	281.189690	-97.288166	360.858327	111.773785	-94.498460	268.177875	149.983426	-25.495998	418.120246	993.966756	-443.677621	491.798251	948.136966	-433.326100	515.660845	970.922047	-417.056598	533.861287	869.560870	-433.783574	561.562003	766.503985	-400.498142	560.541202	753.802811	-282.346029	224.431785	617.087824	-376.996386	162.595371	660.949742	-329.801358	222.372746	471.216163	-395.733263	474.688441	709.317401	-415.797927	405.926403	661.876183	-391.899048	317.961233	648.456064	-390.263774	419.138966	642.121381	-360.592108	268.929631	399.913493	-334.844007	-204.664143	866.866750	-201.607476	-52.140553	84.058901	-410.315896	-50.923139	79.905330	-12.918145	
